<svg xmlns="http://www.w3.org/2000/svg" viewBox="0 0 136 32"><defs><style>.a{fill:#fff;}</style></defs><title>joblocal-logo</title><path class="a" d="M131.19,19.09a1.32,1.32,0,1,0,1.32,1.32A1.32,1.32,0,0,0,131.19,19.09ZM25.49,10.81a21.35,21.35,0,0,0-5.64-.45,21.37,21.37,0,0,0-5.64.45,4,4,0,0,0-2.27,1.65A6.51,6.51,0,0,0,11.12,16a6.51,6.51,0,0,0,.81,3.58,4,4,0,0,0,2.27,1.65,21.45,21.45,0,0,0,5.64.45,21.42,21.42,0,0,0,5.64-.45,4,4,0,0,0,2.27-1.65A6.49,6.49,0,0,0,28.57,16a6.49,6.49,0,0,0-.81-3.58A4,4,0,0,0,25.49,10.81Zm.78,7.61a2.56,2.56,0,0,1-1.17,1.39c-.44.24-1.51.64-5.25.64s-4.81-.4-5.25-.64a2.55,2.55,0,0,1-1.17-1.39A6.53,6.53,0,0,1,13.08,16a6.53,6.53,0,0,1,.35-2.38,2.56,2.56,0,0,1,1.17-1.39c.44-.24,1.51-.64,5.25-.64s4.81.4,5.25.64a2.56,2.56,0,0,1,1.17,1.39A6.53,6.53,0,0,1,26.62,16,6.53,6.53,0,0,1,26.27,18.43Zm28.21,3h2V5.5h-2Zm70.62,0h2V5.5h-2ZM75.78,10.81a21.38,21.38,0,0,0-5.65-.45,21.37,21.37,0,0,0-5.64.45,4,4,0,0,0-2.27,1.65A6.51,6.51,0,0,0,61.41,16a6.51,6.51,0,0,0,.81,3.58,4,4,0,0,0,2.27,1.65,21.45,21.45,0,0,0,5.64.45,21.46,21.46,0,0,0,5.65-.45A4,4,0,0,0,78,19.63,6.49,6.49,0,0,0,78.86,16,6.49,6.49,0,0,0,78,12.46,4,4,0,0,0,75.78,10.81Zm.78,7.61a2.56,2.56,0,0,1-1.17,1.39c-.44.24-1.51.64-5.25.64s-4.81-.4-5.25-.64a2.55,2.55,0,0,1-1.17-1.39A6.52,6.52,0,0,1,63.36,16a6.53,6.53,0,0,1,.35-2.38,2.55,2.55,0,0,1,1.17-1.39c.44-.24,1.51-.64,5.25-.64s4.81.4,5.25.64a2.56,2.56,0,0,1,1.17,1.39A6.54,6.54,0,0,1,76.9,16,6.54,6.54,0,0,1,76.55,18.43Zm19.92,1.5c-.72.35-2.36.54-5.26.52-3.75,0-4.38-.4-4.82-.64a2.56,2.56,0,0,1-1.17-1.38A6.55,6.55,0,0,1,84.88,16a6.54,6.54,0,0,1,.35-2.38,2.55,2.55,0,0,1,1.17-1.39c.43-.24,1.6-.64,4.75-.64,3.82,0,4.82.41,5.25.64a2.45,2.45,0,0,1,1.07,1.39l.09.47h1.82a4.35,4.35,0,0,0-.29-1.53,3.45,3.45,0,0,0-2.26-1.8,21.88,21.88,0,0,0-5.68-.45,20.83,20.83,0,0,0-5.14.45,4,4,0,0,0-2.27,1.65A6.52,6.52,0,0,0,82.92,16a6.52,6.52,0,0,0,.81,3.58A4,4,0,0,0,86,21.28a17.55,17.55,0,0,0,5.21.45,29.4,29.4,0,0,0,5.19-.27,4.31,4.31,0,0,0,2-.93,3.72,3.72,0,0,0,1.07-2.75H97.7A2.41,2.41,0,0,1,96.47,19.93ZM46.74,10.81a19.84,19.84,0,0,0-5.37-.45,19.85,19.85,0,0,0-5.37.45,4.13,4.13,0,0,0-1.13.51V5.5h-2V16a6.49,6.49,0,0,0,.81,3.58A4,4,0,0,0,36,21.28a19.91,19.91,0,0,0,5.37.45,19.9,19.9,0,0,0,5.37-.45A4,4,0,0,0,49,19.63,6.49,6.49,0,0,0,49.82,16,6.49,6.49,0,0,0,49,12.46,4,4,0,0,0,46.74,10.81Zm.78,7.61a2.56,2.56,0,0,1-1.17,1.39c-.43.24-1.46.62-5,.64s-4.55-.41-5-.64a2.56,2.56,0,0,1-1.17-1.39A6.53,6.53,0,0,1,34.87,16a6.53,6.53,0,0,1,.35-2.38,2.56,2.56,0,0,1,1.17-1.39c.43-.24,1.46-.62,5-.64s4.55.41,5,.64a2.56,2.56,0,0,1,1.17,1.39A6.53,6.53,0,0,1,47.87,16,6.53,6.53,0,0,1,47.52,18.43Zm70-7.61a19.91,19.91,0,0,0-5.37-.45,19.91,19.91,0,0,0-5.37.45,4,4,0,0,0-2.27,1.65,6.52,6.52,0,0,0-.81,3.58,6.5,6.5,0,0,0,.81,3.58,4,4,0,0,0,2.27,1.65,19.93,19.93,0,0,0,5.37.45c2.91,0,5.78-.32,8.45-.32V16a6.48,6.48,0,0,0-.81-3.58A4,4,0,0,0,117.5,10.81Zm1.13,9.32c-2.29,0-5,.32-6.5.32-3.46,0-4.55-.4-5-.64A2.56,2.56,0,0,1,106,18.43a6.57,6.57,0,0,1-.35-2.38,6.56,6.56,0,0,1,.35-2.38,2.58,2.58,0,0,1,1.17-1.39c.43-.24,1.46-.62,5-.64s4.55.41,5,.64a2.56,2.56,0,0,1,1.17,1.39,6.48,6.48,0,0,1,.35,2.38ZM4.83,16v5.62A10,10,0,0,1,4.78,23a1.25,1.25,0,0,1-.28.63,1.19,1.19,0,0,1-.7.4,8.64,8.64,0,0,1-1.28.08l0,1.39h.16A8.33,8.33,0,0,0,5,25.27a2.57,2.57,0,0,0,1.22-.77,2.3,2.3,0,0,0,.54-1.05,13.4,13.4,0,0,0,.12-2.21v-9.6l-2,1.22Z"/></svg>